<svg id="visual" viewBox="0 0 960 540" width="960" height="540" xmlns="http://www.w3.org/2000/svg" xmlns:xlink="http://www.w3.org/1999/xlink" version="1.1"><path d="M0 343L22.8 348C45.7 353 91.3 363 137 372.3C182.7 381.7 228.3 390.3 274 388.2C319.7 386 365.3 373 411.2 372.8C457 372.7 503 385.3 548.8 379.5C594.7 373.7 640.3 349.3 686 338.3C731.7 327.3 777.3 329.7 823 336.8C868.7 344 914.3 356 937.2 362L960 368L960 541L937.2 541C914.3 541 868.7 541 823 541C777.3 541 731.7 541 686 541C640.3 541 594.7 541 548.8 541C503 541 457 541 411.2 541C365.3 541 319.7 541 274 541C228.3 541 182.7 541 137 541C91.3 541 45.7 541 22.8 541L0 541Z" fill="#51a2ff"></path><path d="M0 418L22.8 413.5C45.7 409 91.3 400 137 399.3C182.7 398.7 228.3 406.3 274 409.2C319.7 412 365.3 410 411.2 408.8C457 407.7 503 407.3 548.8 401.7C594.7 396 640.3 385 686 385C731.7 385 777.3 396 823 399.8C868.7 403.7 914.3 400.3 937.2 398.7L960 397L960 541L937.2 541C914.3 541 868.7 541 823 541C777.3 541 731.7 541 686 541C640.3 541 594.7 541 548.8 541C503 541 457 541 411.2 541C365.3 541 319.7 541 274 541C228.3 541 182.7 541 137 541C91.3 541 45.7 541 22.8 541L0 541Z" fill="#408ce8"></path><path d="M0 415L22.8 421.7C45.7 428.3 91.3 441.7 137 448.5C182.7 455.3 228.3 455.7 274 445.5C319.7 435.3 365.3 414.7 411.2 413C457 411.3 503 428.7 548.8 439.3C594.7 450 640.3 454 686 446C731.7 438 777.3 418 823 414C868.7 410 914.3 422 937.2 428L960 434L960 541L937.2 541C914.3 541 868.7 541 823 541C777.3 541 731.7 541 686 541C640.3 541 594.7 541 548.8 541C503 541 457 541 411.2 541C365.3 541 319.7 541 274 541C228.3 541 182.7 541 137 541C91.3 541 45.7 541 22.8 541L0 541Z" fill="#2f76d1"></path><path d="M0 476L22.8 468.7C45.7 461.3 91.3 446.7 137 444.5C182.7 442.3 228.3 452.7 274 456.7C319.7 460.7 365.3 458.3 411.2 453.3C457 448.3 503 440.7 548.8 439.2C594.7 437.7 640.3 442.3 686 449.2C731.7 456 777.3 465 823 466.2C868.7 467.3 914.3 460.7 937.2 457.3L960 454L960 541L937.2 541C914.3 541 868.7 541 823 541C777.3 541 731.7 541 686 541C640.3 541 594.7 541 548.8 541C503 541 457 541 411.2 541C365.3 541 319.7 541 274 541C228.3 541 182.7 541 137 541C91.3 541 45.7 541 22.8 541L0 541Z" fill="#1c61ba"></path><path d="M0 483L22.8 484.3C45.7 485.7 91.3 488.3 137 492.5C182.7 496.7 228.3 502.3 274 506C319.7 509.7 365.3 511.3 411.2 509.5C457 507.7 503 502.3 548.8 499.8C594.7 497.3 640.3 497.7 686 499.7C731.7 501.7 777.3 505.3 823 507.3C868.7 509.3 914.3 509.7 937.2 509.8L960 510L960 541L937.2 541C914.3 541 868.7 541 823 541C777.3 541 731.7 541 686 541C640.3 541 594.7 541 548.8 541C503 541 457 541 411.2 541C365.3 541 319.7 541 274 541C228.3 541 182.7 541 137 541C91.3 541 45.7 541 22.8 541L0 541Z" fill="#004ca3"></path></svg>