<svg id="visual" viewBox="0 0 900 600" width="900" height="600" xmlns="http://www.w3.org/2000/svg" xmlns:xlink="http://www.w3.org/1999/xlink" version="1.1"><path d="M0 469L21.5 478.2C43 487.3 86 505.7 128.8 516.8C171.7 528 214.3 532 257.2 522C300 512 343 488 385.8 486.3C428.7 484.7 471.3 505.3 514.2 518.3C557 531.3 600 536.7 642.8 536.5C685.7 536.3 728.3 530.7 771.2 520.2C814 509.7 857 494.3 878.5 486.7L900 479L900 601L878.5 601C857 601 814 601 771.2 601C728.3 601 685.7 601 642.8 601C600 601 557 601 514.2 601C471.3 601 428.7 601 385.8 601C343 601 300 601 257.2 601C214.3 601 171.7 601 128.8 601C86 601 43 601 21.5 601L0 601Z" fill="#2b7fff" stroke-linecap="round" stroke-linejoin="miter"></path></svg>